<svg xmlns="http://www.w3.org/2000/svg" viewBox="0 0 24 24" width="24" height="24">
  <path fill="currentColor" d="M 16.669,18.27 L 15.645,15.58 C 13.047,17.163 10.087,17.656 8.476,16.716 C 8.662,17.125 8.793,17.535 8.821,17.889 C 8.942,19.136 7.917,19.853 6.903,20.561 C 7.741,19.974 7.21,18.568 6.176,17.088 C 5.152,15.617 4.007,14.639 3.169,15.226 C 4.184,14.518 5.199,13.802 6.335,14.342 C 6.661,14.481 6.996,14.751 7.322,15.068 C 7.061,13.634 7.908,11.735 9.407,10.077 L 6.372,8.439 C 7.899,7.368 9.416,6.298 10.794,6.102 C 11.949,5.925 13.001,6.372 14.044,6.903 C 16.641,5.879 19.304,5.813 19.751,6.446 C 19.146,6.875 20.216,8.402 20.821,7.973 C 21.296,8.644 20.253,11.213 18.317,13.327 C 18.27,14.602 18.196,15.813 17.963,16.604 C 17.684,17.563 17.181,17.917 16.669,18.27 Z M 15.282,9.5 A 0.931,0.931 0 1 0 17.144,9.5 A 0.931,0.931 0 1 0 15.282,9.5 Z M 20.365,5.478 A 0.298,0.298 0 1 0 20.961,5.478 A 0.298,0.298 0 1 0 20.365,5.478 Z M 21.725,6.037 A 0.242,0.242 0 1 0 22.209,6.037 A 0.242,0.242 0 1 0 21.725,6.037 Z M 21.361,7.517 A 0.279,0.279 0 1 0 21.92,7.517 A 0.279,0.279 0 1 0 21.361,7.517 Z M 21.147,4.193 A 0.205,0.205 0 1 0 21.557,4.193 A 0.205,0.205 0 1 0 21.147,4.193 Z M 22.777,5.888 A 0.223,0.223 0 1 0 23.223,5.888 A 0.223,0.223 0 1 0 22.777,5.888 Z M 22.544,7.778 A 0.186,0.186 0 1 0 22.916,7.778 A 0.186,0.186 0 1 0 22.544,7.778 Z M 19.565,21.017 C 19.565,20.272 20.03,19.62 20.775,19.434 C 21.52,19.248 22.171,19.713 22.171,20.365 C 22.171,20.924 21.706,21.389 20.775,22.041 L 22.171,22.041 L 22.171,22.879 L 19.378,22.879 L 19.378,22.227 C 20.309,21.576 21.24,21.017 21.427,20.645 C 21.613,20.272 21.333,19.993 20.775,20.086 C 20.216,20.179 19.937,20.551 19.937,21.017 Z" />
</svg>